ffmpeg started on 2016-12-04 at 13:00:10
Report written to "Output/x264/results/ffmpeg/crowd_run_2160p50superfast7000k.log"
Command line:
Tools/ffmpeg/ffmpeg -benchmark -y -i Input/y4m/crowd_run_2160p50.y4m -c:v libx264 -preset superfast -b:v 7000k -an Output/x264/encoded/crowd_run_2160p50superfast7000k.mkv
ffmpeg version N-82227-gdb23fde Copyright (c) 2000-2016 the FFmpeg developers
  built with gcc 5.4.0 (Ubuntu 5.4.0-6ubuntu1~16.04.2) 20160609
  configuration: --prefix=/home/jaroslav/ffmpeg_build --pkg-config-flags=--static --extra-cflags=-I/home/jaroslav/ffmpeg_build/include --extra-ldflags=-L/home/jaroslav/ffmpeg_build/lib --bindir=/home/jaroslav/bin --enable-gpl --enable-libass --enable-libfdk-aac --enable-libfreetype --enable-libmp3lame --enable-libopus --enable-libtheora --enable-libvorbis --enable-libvpx --enable-libx264 --enable-libx265 --enable-nvenc --enable-libmfx --enable-libxvid --enable-libgsm --enable-libopencore-amrnb --enable-version3 --enable-nonfree
  libavutil      55. 35.100 / 55. 35.100
  libavcodec     57. 66.101 / 57. 66.101
  libavformat    57. 57.100 / 57. 57.100
  libavdevice    57.  2.100 / 57.  2.100
  libavfilter     6. 66.100 /  6. 66.100
  libswscale      4.  3.100 /  4.  3.100
  libswresample   2.  4.100 /  2.  4.100
  libpostproc    54.  2.100 / 54.  2.100
Input #0, yuv4mpegpipe, from 'Input/y4m/crowd_run_2160p50.y4m':
  Duration: 00:00:10.00, start: 0.000000, bitrate: 4976642 kb/s
    Stream #0:0: Video: rawvideo (I420 / 0x30323449), yuv420p(progressive), 3840x2160, SAR 1:1 DAR 16:9, 50 fps, 50 tbr, 50 tbn, 50 tbc
[libx264 @ 0x43b71c0] using SAR=1/1
[libx264 @ 0x43b71c0] using cpu capabilities: MMX2 SSE2Fast SSSE3 SSE4.2 AVX FMA3 AVX2 LZCNT BMI2
[libx264 @ 0x43b71c0] profile High, level 5.2
[libx264 @ 0x43b71c0] 264 - core 148 - H.264/MPEG-4 AVC codec - Copyleft 2003-2016 - http://www.videolan.org/x264.html - options: cabac=1 ref=1 deblock=1:0:0 analyse=0x3:0x3 me=dia subme=1 psy=1 psy_rd=1.00:0.00 mixed_ref=0 me_range=16 chroma_me=1 trellis=0 8x8dct=1 cqm=0 deadzone=21,11 fast_pskip=1 chroma_qp_offset=0 threads=6 lookahead_threads=1 sliced_threads=0 nr=0 decimate=1 interlaced=0 bluray_compat=0 constrained_intra=0 bframes=3 b_pyramid=2 b_adapt=1 b_bias=0 direct=1 weightb=1 open_gop=0 weightp=1 keyint=250 keyint_min=25 scenecut=40 intra_refresh=0 rc=abr mbtree=0 bitrate=7000 ratetol=1.0 qcomp=0.60 qpmin=0 qpmax=69 qpstep=4 ip_ratio=1.40 pb_ratio=1.30 aq=1:1.00
Output #0, matroska, to 'Output/x264/encoded/crowd_run_2160p50superfast7000k.mkv':
  Metadata:
    encoder         : Lavf57.57.100
    Stream #0:0: Video: h264 (libx264) (H264 / 0x34363248), yuv420p, 3840x2160 [SAR 1:1 DAR 16:9], q=-1--1, 7000 kb/s, 50 fps, 1k tbn, 50 tbc
    Metadata:
      encoder         : Lavc57.66.101 libx264
    Side data:
      cpb: bitrate max/min/avg: 0/0/7000000 buffer size: 0 vbv_delay: -1
Stream mapping:
  Stream #0:0 -> #0:0 (rawvideo (native) -> h264 (libx264))
Press [q] to stop, [?] for help
frame=   23 fps=0.0 q=48.0 size=       1kB time=00:00:00.14 bitrate=  41.6kbits/s speed=0.262x    frame=   41 fps= 39 q=46.0 size=       1kB time=00:00:00.50 bitrate=  11.7kbits/s speed=0.48x    frame=   59 fps= 36 q=44.0 size=       1kB time=00:00:00.86 bitrate=   6.8kbits/s speed=0.528x    frame=   77 fps= 36 q=45.0 size=       1kB time=00:00:01.22 bitrate=   4.8kbits/s speed=0.571x    frame=   95 fps= 35 q=44.0 size=       1kB time=00:00:01.58 bitrate=   3.7kbits/s speed=0.58x    frame=  113 fps= 35 q=45.0 size=       1kB time=00:00:01.94 bitrate=   3.0kbits/s speed=0.601x    frame=  131 fps= 34 q=44.0 size=       1kB time=00:00:02.30 bitrate=   2.5kbits/s speed=0.603x    frame=  149 fps= 34 q=45.0 size=       1kB time=00:00:02.66 bitrate=   2.2kbits/s speed=0.616x    frame=  167 fps= 34 q=44.0 size=       1kB time=00:00:03.02 bitrate=   1.9kbits/s speed=0.615x    frame=  185 fps= 34 q=45.0 size=       1kB time=00:00:03.38 bitrate=   1.7kbits/s speed=0.625x    frame=  203 fps= 34 q=44.0 size=       1kB time=00:00:03.74 bitrate=   1.6kbits/s speed=0.624x    frame=  221 fps= 34 q=45.0 size=       1kB time=00:00:04.10 bitrate=   1.4kbits/s speed=0.631x    frame=  239 fps= 34 q=44.0 size=       1kB time=00:00:04.46 bitrate=   1.3kbits/s speed=0.629x    frame=  258 fps= 34 q=43.0 size=       1kB time=00:00:04.84 bitrate=   1.2kbits/s speed=0.637x    frame=  276 fps= 34 q=44.0 size=    4304kB time=00:00:05.20 bitrate=6778.8kbits/s speed=0.642x    frame=  293 fps= 34 q=45.0 size=    4304kB time=00:00:05.54 bitrate=6362.8kbits/s speed=0.638x    frame=  312 fps= 34 q=44.0 size=    4304kB time=00:00:05.92 bitrate=5954.5kbits/s speed=0.644x    frame=  329 fps= 34 q=45.0 size=    4304kB time=00:00:06.26 bitrate=5631.1kbits/s speed=0.64x    frame=  347 fps= 34 q=46.0 size=    4304kB time=00:00:06.62 bitrate=5325.0kbits/s speed=0.643x    frame=  365 fps= 34 q=45.0 size=    4304kB time=00:00:06.98 bitrate=5050.4kbits/s speed=0.641x    frame=  383 fps= 34 q=46.0 size=    4304kB time=00:00:07.34 bitrate=4802.7kbits/s speed=0.645x    frame=  401 fps= 33 q=45.0 size=    4304kB time=00:00:07.70 bitrate=4578.2kbits/s speed=0.643x    frame=  419 fps= 34 q=46.0 size=    4304kB time=00:00:08.06 bitrate=4373.7kbits/s speed=0.646x    frame=  436 fps= 34 q=44.0 size=    4304kB time=00:00:08.40 bitrate=4196.7kbits/s speed=0.647x    frame=  453 fps= 33 q=45.0 size=    4304kB time=00:00:08.74 bitrate=4033.5kbits/s speed=0.643x    frame=  470 fps= 33 q=46.0 size=    4304kB time=00:00:09.08 bitrate=3882.4kbits/s speed=0.645x    frame=  487 fps= 33 q=46.0 size=    4304kB time=00:00:09.42 bitrate=3742.3kbits/s speed=0.645x    frame=  500 fps= 33 q=-1.0 Lsize=    8849kB time=00:00:09.94 bitrate=7291.9kbits/s speed=0.651x    
video:8844kB audio:0kB subtitle:0kB other streams:0kB global headers:0kB muxing overhead: 0.049776%
bench: utime=39.752s
bench: maxrss=897196kB
[libx264 @ 0x43b71c0] frame I:2     Avg QP:44.37  size: 88630
[libx264 @ 0x43b71c0] frame P:126   Avg QP:44.96  size: 39685
[libx264 @ 0x43b71c0] frame B:372   Avg QP:47.51  size: 10426
[libx264 @ 0x43b71c0] consecutive B-frames:  0.8%  0.0%  0.0% 99.2%
[libx264 @ 0x43b71c0] mb I  I16..4: 50.6% 49.1%  0.3%
[libx264 @ 0x43b71c0] mb P  I16..4:  8.9%  9.7%  0.0%  P16..4: 22.1%  0.0%  0.0%  0.0%  0.0%    skip:59.3%
[libx264 @ 0x43b71c0] mb B  I16..4:  1.0%  0.4%  0.0%  B16..8: 11.3%  0.0%  0.0%  direct: 2.3%  skip:85.0%  L0:43.6% L1:55.8% BI: 0.6%
[libx264 @ 0x43b71c0] final ratefactor: 37.90
[libx264 @ 0x43b71c0] 8x8 transform intra:47.3% inter:57.4%
[libx264 @ 0x43b71c0] coded y,uvDC,uvAC intra: 11.5% 39.3% 10.0% inter: 0.5% 4.7% 0.1%
[libx264 @ 0x43b71c0] i16 v,h,dc,p: 45% 29% 18%  9%
[libx264 @ 0x43b71c0] i8 v,h,dc,ddl,ddr,vr,hd,vl,hu: 17% 13% 32%  9%  5%  6%  5%  6%  8%
[libx264 @ 0x43b71c0] i4 v,h,dc,ddl,ddr,vr,hd,vl,hu: 25% 18% 34%  8%  3%  3%  3%  3%  3%
[libx264 @ 0x43b71c0] i8c dc,h,v,p: 69% 11% 18%  2%
[libx264 @ 0x43b71c0] Weighted P-Frames: Y:0.8% UV:0.0%
[libx264 @ 0x43b71c0] kb/s:7244.69
